<svg version="1.1" viewBox="0.0 0.0 960.0 540.0" fill="none" stroke="none" stroke-linecap="square" stroke-miterlimit="10" xmlns:xlink="http://www.w3.org/1999/xlink" xmlns="http://www.w3.org/2000/svg"><clipPath id="ge1207c2340_0_0.0"><path d="m0 0l960.0 0l0 540.0l-960.0 0l0 -540.0z" clip-rule="nonzero"/></clipPath><g clip-path="url(#ge1207c2340_0_0.0)"><path fill="#f5f5f5" d="m0 0l960.0 0l0 540.0l-960.0 0z" fill-rule="evenodd"/><path fill="#daf552" d="m756.28534 -0.72309715c-25.582031 0 -50.46393 3.919304 -72.799805 12.139228c-74.62622 27.66706 -100.84967 110.93556 -166.0777 150.80081c-60.010742 36.716446 -114.54605 66.74216 -135.54825 136.76678c-38.71524 129.10117 90.02783 235.32333 210.49521 235.32333c17.55658 0 34.937134 -2.2525024 51.598145 -7.0248413c41.35907 -11.934814 76.3197 -36.84619 120.416504 -36.97986c0.96209717 0 1.9163818 -0.00390625 2.8667603 -0.00390625c28.307983 0 50.768982 1.2146912 70.637024 1.2146912c41.409912 0 71.5639 -5.2716064 119.97064 -37.79355c71.36047 -47.731384 75.142456 -146.21323 52.313843 -234.19905c-13.04718 -50.223694 -34.83551 -97.03914 -57.535095 -129.16406c-40.733276 -57.55519 -121.52722 -91.07959 -196.33728 -91.07959z" fill-rule="evenodd"/><path fill="#515253" d="m968.125 269.5055c-17.443176 0 -12.706909 12.580902 -17.58789 15.666504c-1.3023682 0.82125854 -2.350525 1.0832825 -3.281311 1.0832825c-1.685669 0 -2.9763184 -0.8681946 -4.65802 -0.8681946c-0.93084717 0 -1.9790039 0.26593018 -3.281372 1.0871887c-4.826172 3.1325378 -2.6086426 9.393646 -6.652649 10.304871c-0.35198975 0.0821228 -0.711792 0.11730957 -1.083374 0.11730957c-2.8393555 0 -6.1989746 -2.0805054 -9.570251 -2.0805054c-1.2398071 0 -2.4796143 0.28155518 -3.699829 1.0519714c-4.826233 3.1286316 -4.826233 5.870056 -7.043762 5.870056c-1.5643921 0 -4.0596313 -0.8134155 -6.3201904 -0.8134155c-1.13031 0 -2.2019043 0.20333862 -3.0740967 0.8134155c-2.737732 1.6972656 -5.8704224 3.9146729 -5.8704224 3.9146729l113.11072 0c0 0 1.3062744 -3.9146729 -3.652893 -6.6560974c-4.826233 -2.60849 -7.043762 -0.39108276 -8.870239 -2.60849c-1.826416 -2.2174072 4.826233 -8.087463 -8.482971 -13.95752c0 0 -0.9113159 -12.393188 -19.175781 -12.91333c-0.27374268 -0.0078125 -0.54364014 -0.01171875 -0.80566406 -0.01171875z" fill-rule="evenodd"/><path fill="#4dd2ff" d="m895.7124 65.73137c-23.861145 0 -17.314087 17.316849 -24.103638 21.673439c-1.7912598 1.1341171 -3.234436 1.497818 -4.5133057 1.497818c-2.2996826 0 -4.071411 -1.1693115 -6.3710938 -1.1693115c-1.2788696 0 -2.722046 0.36370087 -4.5133057 1.497818c-6.7816772 4.305748 -3.7819824 13.046303 -9.2612915 14.219528c-0.45758057 0.09385681 -0.93084717 0.13687897 -1.4118652 0.13687897c-3.9579468 0 -8.651184 -2.8900528 -13.32489 -2.8900528c-1.7130127 0 -3.4221191 0.38716125 -5.092163 1.4469833c-6.7855835 4.434799 -6.7855835 8.087448 -9.914429 8.087448c-2.088501 0 -5.51062 -1.0989227 -8.678528 -1.0989227c-1.5839844 0 -3.109314 0.27375793 -4.3686523 1.0989227c-3.7819214 2.4794235 -8.088013 5.611946 -8.088013 5.611946l156.68347 0c0 0 1.9555054 -5.611946 -4.9591675 -9.264595c-6.7817383 -3.7817078 -9.91449 -0.6491852 -12.394043 -3.7817078c-2.4796143 -2.9995499 6.914673 -10.957947 -11.740906 -19.174461c0 0 -1.1733398 -17.352043 -26.614502 -17.872177c-0.45367432 -0.011734009 -0.89953613 -0.019554138 -1.3336792 -0.019554138z" fill-rule="evenodd"/><path fill="#515253" d="m895.7124 65.73137c-23.861145 0 -17.314087 17.316849 -24.103638 21.673439c-1.7912598 1.1341171 -3.234436 1.497818 -4.5133057 1.497818c-2.2996826 0 -4.071411 -1.1693115 -6.3710938 -1.1693115c-1.2788696 0 -2.722046 0.36370087 -4.5133057 1.497818c-6.7816772 4.305748 -3.7819824 13.046303 -9.2612915 14.219528c-0.45758057 0.09385681 -0.93084717 0.13687897 -1.4118652 0.13687897c-3.9579468 0 -8.651184 -2.8900528 -13.32489 -2.8900528c-1.7130127 0 -3.4221191 0.38716125 -5.092163 1.4469833c-6.7855835 4.434799 -6.7855835 8.087448 -9.914429 8.087448c-2.088501 0 -5.51062 -1.0989227 -8.678528 -1.0989227c-1.5839844 0 -3.109314 0.27375793 -4.3686523 1.0989227c-3.7819214 2.4794235 -8.088013 5.611946 -8.088013 5.611946l156.68347 0c0 0 1.9555054 -5.611946 -4.9591675 -9.264595c-6.7817383 -3.7817078 -9.91449 -0.6491852 -12.394043 -3.7817078c-2.4796143 -2.9995499 6.914673 -10.957947 -11.740906 -19.174461c0 0 -1.1733398 -17.352043 -26.614502 -17.872177c-0.45367432 -0.011734009 -0.89953613 -0.019554138 -1.3336792 -0.019554138z" fill-rule="evenodd"/><path fill="#515253" d="m762.64374 45.11384c-33.560486 0 -24.53778 24.52829 -34.021973 30.550865c-2.5460815 1.6151428 -4.6032715 2.1352768 -6.4258423 2.1352768c-3.2617798 0 -5.7765503 -1.6620712 -9.010986 -1.6620712c-1.8068848 0 -3.836731 0.5162201 -6.3515015 2.1352692c-9.652405 6.1320724 -5.217285 18.392311 -13.043274 20.089584c-0.65704346 0.14078522 -1.3375854 0.20726776 -2.0297852 0.20726776c-5.510681 0 -12.096802 -3.9850616 -18.636047 -3.9850616c-2.444397 0 -4.8809814 0.55532837 -7.254944 2.0805206c-9.652405 6.1320724 -9.652405 11.34903 -14.087524 11.34903c-2.8706665 0 -7.7125244 -1.5056458 -12.167175 -1.5056458c-2.229309 0 -4.3568726 0.37543488 -6.09729 1.5056458c-5.350281 3.5235977 -11.482788 7.8293457 -11.482788 7.8293457l221.00024 0c0 0 2.7415771 -7.8293457 -6.914734 -13.046303c-9.652405 -5.349922 -13.958435 -0.9112015 -17.478333 -5.349922c-3.5238647 -4.301834 9.652405 -15.650864 -16.571045 -26.999893c0 0 -1.826416 -24.528294 -37.57318 -25.310444c-0.6296997 -0.015644073 -1.2476196 -0.023464203 -1.8538208 -0.023464203z" fill-rule="evenodd"/><path fill="#000000" d="m744.30884 252.1026c-0.27374268 0 -0.5475464 0.023468018 -0.81347656 0.062576294c-3.5238037 0.52404785 -5.8704224 4.0437164 -4.826172 7.567337c0.7821655 3.5196838 4.4350586 6.1320496 7.563904 7.567322c3.1326904 1.3413696 10.289917 1.4352417 12.26886 1.4352417c0.3324585 0 0.5162964 -0.00390625 0.5162964 -0.00390625c0 0 -1.9555664 -5.999115 -2.0845947 -6.261139c-1.9790039 -3.9537659 -7.7008057 -10.367432 -12.624817 -10.367432z" fill-rule="evenodd"/><path fill="#000000" d="m800.50635 361.0916c2.6086426 2.8704834 9.394287 6.13208 10.176514 6.6560974c-0.91522217 2.2174072 -1.826477 4.3018494 -2.7416382 6.3901978c-2.9997559 7.176239 -5.8704834 12.91333 -7.9589233 16.960968c-0.39111328 0.7821655 -0.78222656 1.5643005 -1.0403442 2.2174072l-0.39111328 0c-0.1329956 -0.7860718 -0.26202393 -1.5682068 -0.39501953 -2.6123962c-0.64923096 -4.563843 -1.5643921 -10.957947 -3.1287842 -18.654327c-0.39111328 -2.475525 -1.0442505 -5.0878906 -1.5644531 -7.6963806c2.3466187 -1.0441589 4.6932373 -2.0844421 7.043762 -3.2615662zm-33.998535 -135.23413c-0.88775635 0 -1.7990723 0.19554138 -2.6594849 0.6100769c-4.568054 2.346466 -5.741394 11.611053 -4.9591675 16.174911c0 0.38716125 1.6582642 6.265045 1.8225098 6.265045c0 0 0.00390625 0 0.00390625 -0.003921509l0.12908936 0c-0.25811768 1.435257 -0.39111328 2.9995575 -0.64923096 4.825882c-0.26202393 3.1325226 -0.6531372 6.6561127 -0.6531372 10.566879c-0.26202393 4.176697 -0.1329956 8.482452 0.25811768 12.655212c0.39501953 4.6968384 1.1772461 9.393646 2.350525 13.95752l0 0.13296509c-0.7821655 -1.3061829 -3.2617798 -4.6968384 -3.3908691 -4.958832c-2.506958 -2.9448242 -8.479065 -6.8868713 -13.113647 -6.8868713c-0.9112549 0 -1.7716675 0.15252686 -2.5421753 0.49276733c-3.2617798 1.4352417 -4.568054 5.4828796 -2.7416382 8.611481c1.826477 3.1325378 6.003418 4.6968384 9.394287 5.21698c0.45758057 0.0821228 0.9777832 0.11730957 1.5448608 0.11730957c4.087036 0 10.407227 -1.84198 10.9782715 -2.0726929c1.3062744 4.696808 2.9997559 9.131622 4.9591675 13.566406c1.0442505 2.60849 2.2175293 5.087921 3.5198975 7.6963806c-0.7821655 -1.0441589 -1.4313965 -2.0844116 -1.5643921 -2.2173767c-2.5304565 -2.8587952 -8.494751 -6.836029 -13.195801 -6.836029c-0.87213135 0 -1.701294 0.13687134 -2.460022 0.4458313c-3.2617798 1.5643005 -4.564148 5.4789734 -2.6086426 8.607574c1.6973877 3.2615967 5.8704224 4.825897 9.265198 5.349945c0.3206787 0.035186768 0.680542 0.054748535 1.0637817 0.054748535c3.6255493 0 9.546814 -1.540863 11.197266 -2.0101318c0.5241089 1.0402527 0.91522217 1.9553833 1.4353638 2.9995422c2.3466187 4.5638733 4.6971436 9.260681 6.7856445 13.828461c0.7821655 1.6933594 1.5643921 3.2615662 2.2175293 4.9549255c-0.6531372 -1.0441589 -1.1772461 -1.8263245 -1.3062744 -1.9553833c-2.5304565 -2.862671 -8.494751 -6.8359985 -13.195801 -6.8359985c-0.87609863 0 -1.7052002 0.13687134 -2.460022 0.44189453c-3.2617798 1.5682373 -4.564148 5.611969 -2.6086426 8.74057c1.6973877 3.1325073 5.8704224 4.696808 9.2612915 5.2208557c0.44195557 0.0664978 0.9347534 0.09777832 1.4627075 0.09777832c3.5198975 0 8.596436 -1.3570251 10.411133 -1.9241028c0.6531372 1.6933594 1.3062744 3.390625 1.9555054 5.0839844c0.39111328 1.1771545 0.78222656 2.2213135 1.0442505 3.3945618c0.39111328 1.1732178 0.6531372 2.3464355 0.91522217 3.390625c0.64923096 2.2174072 1.1732788 4.567749 1.5643921 6.652191c0.39111328 1.5682068 0.6531372 2.9995728 0.9112549 4.4348145c-0.64923096 -1.6933594 -2.2175293 -4.825897 -2.3466187 -5.087921c-2.2644653 -3.5744324 -8.338318 -8.88916 -13.148865 -8.88916c-0.45758057 0 -0.9034424 0.050842285 -1.3336182 0.15252686c-3.5199585 1.0402832 -5.3463745 4.825897 -4.0440063 8.216522c1.3062744 3.390625 5.2211914 5.608032 8.482971 6.5231323c1.2945557 0.371521 3.1327515 0.49276733 5.01001 0.49276733c3.418274 0 6.9694824 -0.410614 7.642151 -0.49276733c0.5241089 2.346466 0.91522217 4.6968384 1.3062744 6.9142456c1.3023682 7.6963806 2.2175903 14.086548 2.737732 18.525269c0 0.91119385 0.1329956 1.5643005 0.26202393 2.2174072l-15.526733 0l5.6123047 7.172333l26.481567 0l5.6123047 -7.172333l-14.482544 0l0.39111328 -0.6531067c1.9555054 -4.176697 4.6971436 -10.046753 7.6968994 -17.35205c0.91516113 -2.2174072 1.826477 -4.696808 2.8706665 -7.305298c0.7352905 0.21118164 6.0112915 1.2631836 9.953613 1.2631836c0.9660034 0 1.8538208 -0.06259155 2.569519 -0.21899414c3.3947754 -0.7821655 7.4387817 -2.7375488 9.003174 -5.999115c1.5643921 -3.2615662 0 -7.176239 -3.3908691 -8.478546c-0.5944824 -0.19161987 -1.2280273 -0.27764893 -1.8811646 -0.27764893c-4.794922 0 -10.84137 4.6420593 -13.254517 7.9740295c-0.12902832 0.12905884 -1.5643921 2.7375488 -2.4795532 4.4348145c0.39501953 -1.0441895 0.7861328 -2.0883484 1.177185 -3.1325378c0.78222656 -2.2173767 1.4353638 -4.305725 2.2175903 -6.5231323l1.0442505 -3.390625c0.39105225 -1.1732483 0.64923096 -2.4794312 0.9112549 -3.652649c0.6531372 -2.7375488 1.1732788 -5.608032 1.5643921 -8.478546c1.857727 0.6179199 7.9276733 2.75708 11.447571 2.75708c0.19165039 0 0.37939453 -0.00390625 0.5553589 -0.01953125c3.3947754 -0.25811768 7.6968994 -1.5643005 9.7854 -4.5638733c2.088501 -2.9995422 1.1732788 -7.176239 -2.088501 -8.869598c-0.9112549 -0.46929932 -1.9672241 -0.67266846 -3.0975342 -0.67266846c-4.548523 0 -10.336853 3.2772217 -12.949402 5.889618c-0.12902832 0.26202393 -2.2175293 2.870514 -3.3908691 4.3057556c0.26208496 -1.8263245 0.6531372 -3.52359 0.78222656 -5.2208557c0.6531372 -5.21698 1.1733398 -10.304871 1.6973877 -15.52182c0.12908936 -1.6972656 0.26202393 -3.1325378 0.39111328 -4.6968384c0.6257324 0.12515259 7.9589233 2.886139 11.901245 2.886139c0.1720581 0 0.33636475 -0.00390625 0.49279785 -0.015625c3.390808 -0.26202393 7.6968994 -1.5643005 9.785339 -4.5677795c2.0845947 -2.9995422 1.1733398 -7.043274 -2.08844 -8.869598c-0.9113159 -0.46929932 -1.9672852 -0.67266846 -3.1014404 -0.67266846c-4.548523 0 -10.332947 3.281128 -12.945496 5.889618c-0.26208496 0.26202393 -3.2618408 4.0437317 -3.914978 4.958832c0.39111328 -3.52359 0.78222656 -6.914215 1.3063354 -10.30484c0.6531372 -4.6968384 1.6973267 -9.264587 2.9996948 -13.699402c0.2503662 0.12515259 7.8377075 3.0151978 11.905212 3.0151978c0.16815186 0 0.33239746 -0.00390625 0.48883057 -0.015625c3.3908691 -0.25811768 7.6968994 -1.564331 9.7854 -4.5638733c2.088501 -2.9995422 1.1732788 -7.176239 -1.9594116 -8.869598c-0.9347534 -0.46929932 -2.010254 -0.67266846 -3.1640015 -0.67266846c-4.611145 0 -10.399414 3.2772217 -13.012024 5.889618c-0.12902832 0.26202393 -3.390808 4.3057556 -3.914917 5.0878906c0 -0.26202393 0.1329956 -0.52404785 0.1329956 -0.782135c1.4353027 -4.4348145 3.2617798 -8.74057 5.479309 -12.917267c1.1733398 -2.3464355 2.3466187 -4.434784 3.652893 -6.5231323c1.4353638 0.7860718 8.088013 4.0437317 11.740906 4.176697c0.25030518 0.0078125 0.50061035 0.01171875 0.7548218 0.01171875c3.4612427 0 7.2315063 -0.86035156 9.421692 -3.5353088c2.3466187 -2.7375488 1.826416 -6.9142456 -1.0442505 -8.998688c-1.13031 -0.75476074 -2.5578003 -1.067627 -4.1104736 -1.067627c-4.3725586 0 -9.761963 2.4716187 -12.456665 4.587311c-0.13293457 0.1329956 -1.9594116 1.9593201 -3.2617798 3.2615967c0.64923096 -0.91122437 1.1733398 -1.9553833 1.826477 -2.7375488c2.0845337 -3.2615662 4.302124 -6.1320496 6.2615356 -8.611481c1.0442505 -1.435257 2.088501 -2.7375336 3.1288452 -3.7817078c1.826416 0 9.003174 -0.26202393 12.264954 -1.8263245c3.1326904 -1.435257 6.652649 -4.176697 7.4348755 -7.6963806c0.7821655 -3.785614 -1.9555664 -7.305298 -5.737488 -7.438278c-0.17993164 -0.015640259 -0.36376953 -0.027374268 -0.54364014 -0.027374268c-4.9748535 0 -10.743591 6.6991425 -12.50354 10.727219c-0.12908936 0.39108276 -1.9555054 6.261139 -1.9555054 6.261139l0.12902832 0c-0.91516113 1.1732178 -1.9555054 2.3464508 -2.9997559 3.652649c-2.08844 2.4754944 -4.3060303 5.2169495 -6.5235596 8.478516c-2.4796143 3.3906555 -4.6971436 7.0433044 -6.7856445 10.695953c-2.3466187 4.176697 -4.1730347 8.478516 -5.737488 12.917236l0 0.12905884c0 -1.4352417 0 -5.7409973 -0.13293457 -5.999115c-0.52020264 -4.5677795 -4.3060303 -13.046295 -9.394287 -13.961426c-0.3637085 -0.062561035 -0.7235718 -0.09384155 -1.0755615 -0.09384155c-3.1952515 0 -5.850891 2.5458984 -5.9682007 5.834839c-0.26202393 3.5236206 2.350525 7.1762695 4.826233 9.522705c2.8706665 2.60849 10.958679 5.087921 11.611816 5.2169495c-1.4353638 4.6968384 -2.6086426 9.264618 -3.3908691 14.090485c-0.52404785 2.7375488 -0.91516113 5.4789734 -1.3062744 8.349487l0 -2.741455c-0.52020264 -4.563843 -4.4351196 -13.042389 -9.523376 -13.95752c-0.28936768 -0.042999268 -0.5787964 -0.062561035 -0.86431885 -0.062561035c-3.1757202 0 -5.940857 2.5732727 -6.1793823 5.8035583c-0.26208496 3.6526794 2.3465576 7.3053284 4.9591675 9.522705c2.6086426 2.346466 9.390381 4.6968384 11.216797 5.21698c-0.12908936 1.0441589 -0.25811768 2.2173767 -0.39111328 3.2615662c-0.6531372 5.2169495 -1.3023682 10.30484 -1.9555054 15.392761c-0.26202393 1.8263245 -0.6531372 3.52359 -0.91516113 5.2208557l0 -2.2213135c-0.64923096 -4.563843 -4.4351196 -13.042389 -9.523376 -13.957489c-0.35198975 -0.06259155 -0.70007324 -0.09387207 -1.0442505 -0.09387207c-3.0974731 0 -5.7648315 2.5458984 -5.9994507 5.8348694c-0.26208496 3.652649 2.3465576 7.176239 4.9591675 9.522675c2.475647 2.2174072 8.737183 4.3057556 10.825684 5.087921c-0.39111328 1.6972656 -0.6531372 3.52359 -1.1732788 5.2169495c-0.26208496 1.1732178 -0.52020264 2.3503723 -0.91522217 3.3945312c-0.39105225 1.1732483 -0.7821655 2.346466 -1.1732788 3.390625c-0.78222656 2.2174072 -1.5643921 4.4348145 -2.3466187 6.3901978c-0.52404785 1.4352417 -1.0442505 2.8704834 -1.5643921 4.176697c0.25811768 -1.6972656 0.64923096 -5.2208557 0.64923096 -5.4789734c0 -4.0437317 -1.0442505 -8.087463 -3.1288452 -11.481995c0 -0.5201416 0 -0.91122437 0 -1.4352417c-0.44976807 -3.0230408 -3.109253 -5.275635 -6.081604 -5.275635c-0.4888916 0 -0.9855957 0.058654785 -1.486206 0.18771362c-4.9591675 1.3062134 -8.088013 10.046753 -8.350037 14.610596c0 0.26202393 0.13293457 3.2615967 0.39111328 5.087921c-0.2581787 -1.0402832 -0.52020264 -2.0844421 -0.78222656 -3.2615967c-0.5201416 -2.2173767 -1.1732788 -4.434784 -1.826477 -6.78125c-0.26202393 -1.0441589 -0.6531372 -2.2174072 -0.9112549 -3.390625c-0.39111328 -1.177124 -0.91516113 -2.2174072 -1.3062744 -3.3945312c-0.9112549 -2.7375488 -2.088501 -5.4789734 -3.2617798 -8.087463c1.9555054 -0.5201416 8.74115 -2.2174072 11.482788 -4.3057556c2.737671 -2.0844421 5.6083984 -5.4789734 5.6083984 -9.131622c0.12512207 -3.4962158 -2.6204224 -6.276764 -6.062134 -6.276764c-0.15252686 0 -0.3050537 0.00390625 -0.46148682 0.015625c-5.088257 0.52404785 -9.523315 8.74057 -10.438538 13.175354c0 0.26202393 -0.39105225 3.6526794 -0.5201416 5.479004c-0.78222656 -1.6933594 -1.4353638 -3.2615967 -2.2175293 -4.825897c-2.3466187 -4.563843 -4.826233 -9.260681 -7.176758 -13.828461c-0.7821655 -1.4352417 -1.5643921 -2.7375183 -2.2175293 -4.17276c0.6531372 -0.13296509 8.874084 -2.0883484 11.87384 -4.4348145c2.737732 -2.0883484 5.6083984 -5.4789734 5.6083984 -9.131622c0.1251831 -3.500122 -2.7415771 -6.28067 -6.0776978 -6.28067c-0.1486206 0 -0.2972412 0.0078125 -0.44586182 0.01953125c-5.088257 0.5201416 -9.523315 8.736633 -10.567566 13.175354c0 0.39108276 -0.39111328 5.087921 -0.52020264 6.3901978c-1.5643921 -3.128601 -3.2617798 -6.261139 -4.568054 -9.393646c-1.9555054 -4.1727905 -3.652893 -8.607605 -5.088257 -13.042389c0.39501953 0 8.8741455 -1.9592896 12.00293 -4.4348145c2.7416382 -2.0883484 5.6123047 -5.4789734 5.6123047 -9.135529c0.1251831 -3.375 -2.753357 -6.276764 -6.097229 -6.276764c-0.1408081 0 -0.28552246 0.0078125 -0.42633057 0.015625c-5.088257 0.6531067 -9.523315 8.74057 -10.438538 13.308319c-0.12902832 0.26202393 -0.6531372 5.4789734 -0.6531372 6.3901978c0 -0.25811768 -0.12902832 -0.5201416 -0.25811768 -0.7821655c-1.3062744 -4.434784 -2.088501 -9.131622 -2.6086426 -13.695496c-0.26202393 -2.6123657 -0.39111328 -5.0878906 -0.5241089 -7.438263c1.6973877 -0.25808716 9.132263 -1.1732178 12.132019 -2.9995422c3.1327515 -1.9553833 6.265442 -4.958832 6.5235596 -8.478546c0.5241089 -3.6526337 -2.2175293 -6.914215 -5.8704224 -7.043274c-5.088257 0 -10.434631 7.6963806 -11.869934 11.99823c0 0.26202393 -0.5241089 2.7414246 -0.91522217 4.567749l0 -3.2615662c0 -3.7817078 0.26208496 -7.4343567 0.5241089 -10.566879c0.12902832 -1.8263245 0.25811768 -3.390625 0.5201416 -4.8258667c1.4353638 -1.0441742 7.4348755 -5.34993 9.2612915 -8.349487c1.826477 -2.9995422 3.2618408 -7.176239 1.826477 -10.566864c-0.8604126 -2.4950714 -3.2070312 -4.000717 -5.6866455 -4.000717z" fill-rule="evenodd"/><path fill="#000000" d="m831.4778 246.30685c-2.5656738 0 -5.0335083 1.6229706 -5.925232 4.2940216c-1.1732788 3.390625 0.39501953 7.5673065 2.2214355 10.433914c2.3466187 3.3945312 9.91449 8.220398 9.91449 8.220398c0 0 1.6934814 -6.0029907 1.6934814 -6.3940735c0.6531372 -4.5638733 -0.78222656 -13.695496 -5.47937 -16.045853c-0.7861328 -0.344162 -1.6113281 -0.5084076 -2.4248047 -0.5084076z" fill-rule="evenodd"/><path fill="#f5f5f5" d="m384.72934 317.65088l0 108.668304l194.77682 0l0 -108.668304z" fill-rule="evenodd"/><path stroke="#263238" stroke-width="1.1391076115485563" stroke-linejoin="round" stroke-linecap="round" d="m384.72934 317.65088l0 108.668304l194.77682 0l0 -108.668304z" fill-rule="evenodd"/><path fill="#263238" d="m524.3216 317.65088l0 108.668304l55.18457 0l0 -108.668304z" fill-rule="evenodd"/><path stroke="#263238" stroke-width="1.1391076115485563" stroke-linejoin="round" stroke-linecap="round" d="m524.3216 317.65088l0 108.668304l55.18457 0l0 -108.668304z" fill-rule="evenodd"/><path fill="#f5f5f5" d="m528.7567 181.32956l0 352.6138l194.7768 0l0 -352.6138z" fill-rule="evenodd"/><path stroke="#263238" stroke-width="1.1391076115485563" stroke-linejoin="round" stroke-linecap="round" d="m528.7567 181.32956l0 352.6138l194.7768 0l0 -352.6138z" fill-rule="evenodd"/><path fill="#263238" d="m668.34894 181.32956l0 352.6138l55.18457 0l0 -352.6138z" fill-rule="evenodd"/><path stroke="#263238" stroke-width="1.1391076115485563" stroke-linejoin="round" stroke-linecap="round" d="m668.34894 181.32956l0 352.6138l55.18457 0l0 -352.6138z" fill-rule="evenodd"/><path fill="#515253" d="m384.72934 425.6661l0 108.668304l194.77682 0l0 -108.668304z" fill-rule="evenodd"/><path stroke="#263238" stroke-width="1.1391076115485563" stroke-linejoin="round" stroke-linecap="round" d="m384.72934 425.6661l0 108.668304l194.77682 0l0 -108.668304z" fill-rule="evenodd"/><path fill="#263238" d="m564.7655 425.6661l0 108.668304l105.671936 0l0 -108.668304z" fill-rule="evenodd"/><path stroke="#263238" stroke-width="1.1391076115485563" stroke-linejoin="round" stroke-linecap="round" d="m564.7655 425.6661l0 108.668304l105.671936 0l0 -108.668304z" fill-rule="evenodd"/><path fill="#f5f5f5" d="m572.98254 425.6661l0 108.668304l156.9455 0l0 -108.668304z" fill-rule="evenodd"/><path stroke="#263238" stroke-width="1.1391076115485563" stroke-linejoin="round" stroke-linecap="round" d="m572.98254 425.6661l0 108.668304l156.9455 0l0 -108.668304z" fill-rule="evenodd"/><path fill="#515253" d="m579.50616 236.11932l0 34.700195l-75.01346 98.49249l231.82596 0l-101.36597 -133.19269z" fill-rule="evenodd"/><path stroke="#263238" stroke-width="1.1391076115485563" stroke-linejoin="round" stroke-linecap="round" d="m579.50616 236.11932l0 34.700195l-75.01346 98.49249l231.82596 0l-101.36597 -133.19269z" fill-rule="evenodd"/><path fill="#f5f5f5" d="m579.50616 236.11932l-101.36984 133.19269l202.73575 0l-101.365906 -133.19269z" fill-rule="evenodd"/><path stroke="#263238" stroke-width="1.1391076115485563" stroke-linejoin="round" stroke-linecap="round" d="m579.50616 236.11932l-101.36984 133.19269l202.73575 0l-101.365906 -133.19269z" fill-rule="evenodd"/><path fill="#daf552" d="m659.0863 370.09448l0 164.24023l120.54736 0l0 -164.24023z" fill-rule="evenodd"/><path stroke="#263238" stroke-width="1.1391076115485563" stroke-linejoin="round" stroke-linecap="round" d="m659.0863 370.09448l0 164.24023l120.54736 0l0 -164.24023z" fill-rule="evenodd"/><path fill="#515253" d="m779.63324 370.09418l0 164.24023l74.2312 0l0 -164.24023z" fill-rule="evenodd"/><path stroke="#263238" stroke-width="1.1391076115485563" stroke-linejoin="round" stroke-linecap="round" d="m779.63324 370.09418l0 164.24023l74.2312 0l0 -164.24023z" fill-rule="evenodd"/><path fill="#daf552" d="m454.65454 370.09418l0 164.24023l194.7768 0l0 -164.24023z" fill-rule="evenodd"/><path stroke="#263238" stroke-width="1.1391076115485563" stroke-linejoin="round" stroke-linecap="round" d="m454.65454 370.09418l0 164.24023l194.7768 0l0 -164.24023z" fill-rule="evenodd"/><path fill="#263238" d="m575.20013 370.09418l0 164.24023l74.2312 0l0 -164.24023z" fill-rule="evenodd"/><path stroke="#263238" stroke-width="1.1391076115485563" stroke-linejoin="round" stroke-linecap="round" d="m575.20013 370.09418l0 164.24023l74.2312 0l0 -164.24023z" fill-rule="evenodd"/><path fill="#515253" d="m363.0701 533.55225l0 7.1723633l684.527 0l0 -7.1723633z" fill-rule="evenodd"/><path stroke="#263238" stroke-width="1.1391076115485563" stroke-linejoin="round" stroke-linecap="round" d="m363.0701 533.55225l0 7.1723633l684.527 0l0 -7.1723633z" fill-rule="evenodd"/></g></svg>