<?xml version="1.0"?>
<svg xmlns="http://www.w3.org/2000/svg" xmlns:xlink="http://www.w3.org/1999/xlink" xmlns:svgjs="http://svgjs.com/svgjs" version="1.1" width="512" height="512" x="0" y="0" viewBox="0 0 512 512" style="enable-background:new 0 0 512 512" xml:space="preserve" class=""><g><linearGradient xmlns="http://www.w3.org/2000/svg" id="SVGID_1_" gradientUnits="userSpaceOnUse" x1="256" x2="256" y1="512" y2="0"><stop stop-opacity="1" stop-color="#daf552" offset="0.011583011583011582"/><stop stop-opacity="1" stop-color="#404040" offset="0.5907335907335908"/></linearGradient><linearGradient xmlns="http://www.w3.org/2000/svg" id="SVGID_2_" gradientUnits="userSpaceOnUse" x1="256" x2="256" y1="270" y2="90.001"><stop stop-opacity="1" stop-color="#adc243" offset="0"/><stop stop-opacity="1" stop-color="#daf552" offset="0.5028"/><stop stop-opacity="1" stop-color="#daf552" offset="1"/></linearGradient><g xmlns="http://www.w3.org/2000/svg"><g><g><path d="m256 0c-99.258 0-180 80.742-180 180 0 30.308 7.676 60.293 22.588 87.305l144.639 237.547c2.724 4.438 7.558 7.148 12.773 7.148s10.049-2.71 12.773-7.148l145.02-238.162c14.531-26.397 22.207-56.382 22.207-86.69 0-99.258-80.742-180-180-180z" fill="url(#SVGID_1_)" data-original="url(#SVGID_1_)" style=""/></g></g><g><g><path d="m356.499 184.501-90-90c-5.7-6-15.299-6-20.999 0l-90 90c-6 5.7-6 15.298 0 20.999 5.398 6.002 15.603 6 20.999 0l4.501-4.199v53.699c0 8.401 6.599 15 15 15h45v-45c0-8.401 6.599-15 15-15s15 6.599 15 15v45h45c8.401 0 15-6.599 15-15v-53.699l4.501 4.199c5.398 6.002 15.603 6 20.999 0 6-5.701 6-15.299-.001-20.999z" fill="url(#SVGID_2_)" data-original="url(#SVGID_2_)" style=""/></g></g></g></g></svg>
