<svg version="1.1" viewBox="0.0 0.0 960.0 540.0" fill="none" stroke="none" stroke-linecap="square" stroke-miterlimit="10" xmlns:xlink="http://www.w3.org/1999/xlink" xmlns="http://www.w3.org/2000/svg"><clipPath id="ge1f88530ce_0_0.0"><path d="m0 0l960.0 0l0 540.0l-960.0 0l0 -540.0z" clip-rule="nonzero"/></clipPath><g clip-path="url(#ge1f88530ce_0_0.0)"><path fill="#f5f5f5" d="m0 0l960.0 0l0 540.0l-960.0 0z" fill-rule="evenodd"/><path fill="#f5f5f5" d="m265.34875 209.46452l0 108.66832l194.77682 0l0 -108.66832z" fill-rule="evenodd"/><path stroke="#263238" stroke-width="1.1391076115485563" stroke-linejoin="round" stroke-linecap="round" d="m265.34875 209.46452l0 108.66832l194.77682 0l0 -108.66832z" fill-rule="evenodd"/><path fill="#263238" d="m404.94104 209.46452l0 108.66832l55.18454 0l0 -108.66832z" fill-rule="evenodd"/><path stroke="#263238" stroke-width="1.1391076115485563" stroke-linejoin="round" stroke-linecap="round" d="m404.94104 209.46452l0 108.66832l55.18454 0l0 -108.66832z" fill-rule="evenodd"/><path fill="#f5f5f5" d="m409.37613 73.1432l0 352.61377l194.77682 0l0 -352.61377z" fill-rule="evenodd"/><path stroke="#263238" stroke-width="1.1391076115485563" stroke-linejoin="round" stroke-linecap="round" d="m409.37613 73.1432l0 352.61377l194.77682 0l0 -352.61377z" fill-rule="evenodd"/><path fill="#263238" d="m548.9684 73.1432l0 352.61377l55.18457 0l0 -352.61377z" fill-rule="evenodd"/><path stroke="#263238" stroke-width="1.1391076115485563" stroke-linejoin="round" stroke-linecap="round" d="m548.9684 73.1432l0 352.61377l55.18457 0l0 -352.61377z" fill-rule="evenodd"/><path fill="#515253" d="m265.34875 317.47974l0 108.668335l194.77682 0l0 -108.668335z" fill-rule="evenodd"/><path stroke="#263238" stroke-width="1.1391076115485563" stroke-linejoin="round" stroke-linecap="round" d="m265.34875 317.47974l0 108.668335l194.77682 0l0 -108.668335z" fill-rule="evenodd"/><path fill="#263238" d="m445.38492 317.47974l0 108.668335l105.67197 0l0 -108.668335z" fill-rule="evenodd"/><path stroke="#263238" stroke-width="1.1391076115485563" stroke-linejoin="round" stroke-linecap="round" d="m445.38492 317.47974l0 108.668335l105.67197 0l0 -108.668335z" fill-rule="evenodd"/><path fill="#f5f5f5" d="m453.602 317.47974l0 108.668335l156.94543 0l0 -108.668335z" fill-rule="evenodd"/><path stroke="#263238" stroke-width="1.1391076115485563" stroke-linejoin="round" stroke-linecap="round" d="m453.602 317.47974l0 108.668335l156.94543 0l0 -108.668335z" fill-rule="evenodd"/><path fill="#515253" d="m460.12558 127.93297l0 34.70018l-75.01346 98.49252l231.82593 0l-101.365906 -133.1927z" fill-rule="evenodd"/><path stroke="#263238" stroke-width="1.1391076115485563" stroke-linejoin="round" stroke-linecap="round" d="m460.12558 127.93297l0 34.70018l-75.01346 98.49252l231.82593 0l-101.365906 -133.1927z" fill-rule="evenodd"/><path fill="#f5f5f5" d="m460.12558 127.93297l-101.36984 133.1927l202.73572 0l-101.365875 -133.1927z" fill-rule="evenodd"/><path stroke="#263238" stroke-width="1.1391076115485563" stroke-linejoin="round" stroke-linecap="round" d="m460.12558 127.93297l-101.36984 133.1927l202.73572 0l-101.365875 -133.1927z" fill-rule="evenodd"/><path fill="#daf552" d="m539.70575 261.90814l0 164.24023l120.54736 0l0 -164.24023z" fill-rule="evenodd"/><path stroke="#263238" stroke-width="1.1391076115485563" stroke-linejoin="round" stroke-linecap="round" d="m539.70575 261.90814l0 164.24023l120.54736 0l0 -164.24023z" fill-rule="evenodd"/><path fill="#515253" d="m660.2526 261.90784l0 164.24023l74.23126 0l0 -164.24023z" fill-rule="evenodd"/><path stroke="#263238" stroke-width="1.1391076115485563" stroke-linejoin="round" stroke-linecap="round" d="m660.2526 261.90784l0 164.24023l74.23126 0l0 -164.24023z" fill-rule="evenodd"/><path fill="#daf552" d="m335.27396 261.90784l0 164.24023l194.77682 0l0 -164.24023z" fill-rule="evenodd"/><path stroke="#263238" stroke-width="1.1391076115485563" stroke-linejoin="round" stroke-linecap="round" d="m335.27396 261.90784l0 164.24023l194.77682 0l0 -164.24023z" fill-rule="evenodd"/><path fill="#263238" d="m455.81952 261.90784l0 164.24023l74.23126 0l0 -164.24023z" fill-rule="evenodd"/><path stroke="#263238" stroke-width="1.1391076115485563" stroke-linejoin="round" stroke-linecap="round" d="m455.81952 261.90784l0 164.24023l74.23126 0l0 -164.24023z" fill-rule="evenodd"/><path fill="#515253" d="m243.69014 425.36612l0 7.1730347l553.7138 0l0 -7.1730347z" fill-rule="evenodd"/><path stroke="#263238" stroke-width="1.1391076115485563" stroke-linejoin="round" stroke-linecap="round" d="m243.69014 425.36612l0 7.1730347l553.7138 0l0 -7.1730347z" fill-rule="evenodd"/></g></svg>