<?xml version="1.0"?>
<svg xmlns="http://www.w3.org/2000/svg" xmlns:xlink="http://www.w3.org/1999/xlink" xmlns:svgjs="http://svgjs.com/svgjs" version="1.1" width="512" height="512" x="0" y="0" viewBox="0 0 512 512" style="enable-background:new 0 0 512 512" xml:space="preserve" class=""><g><path xmlns="http://www.w3.org/2000/svg" d="m400.876 59.964c-38.709-38.668-90.161-59.964-144.876-59.964s-106.167 21.296-144.877 59.964c-38.706 38.666-60.058 90.088-60.12 144.838.039 39.855 11.108 77.248 33.841 114.315 19.685 32.098 45.258 60.104 72.332 89.753 26.547 29.071 53.996 59.133 75.918 93.815 3.664 5.799 10.046 9.315 16.906 9.315h12c6.859 0 13.24-3.516 16.905-9.314 12.078-19.107 25.899-37.634 42.255-56.641 7.204-8.373 6.258-21-2.115-28.205-8.371-7.205-20.999-6.257-28.205 2.115-12.959 15.06-24.472 29.886-34.876 44.929-21.386-30.567-45.659-57.15-69.25-82.985-26.285-28.785-50.73-55.561-68.338-84.555l121.734-122.538c7.465-6.395 18.457-6.418 25.947-.054l125.753 125.505c-9.311 14.902-20.082 28.711-31.151 41.867-7.111 8.452-6.024 21.068 2.427 28.18s21.067 6.026 28.181-2.427c34.442-40.935 69.662-92.321 69.731-163.117-.064-54.708-21.415-106.131-60.122-144.796zm-26.874 166.008v-66.972c0-11.046-8.954-20-20-20s-20 8.954-20 20v27.05s-40.706-40.611-40.99-40.864c-22.842-20.334-57.227-20.263-79.982.169-.282.254-112.955 113.654-112.955 113.654-5.778-16.737-9.053-34.595-9.072-54.204.104-90.873 74.122-164.805 164.997-164.805s164.893 73.932 164.998 164.763c-.021 21.141-3.927 40.217-10.392 57.739zm-110 47.028c11.046 0 20 8.954 20 20v20c0 11.046-8.954 20-20 20h-20c-11.046 0-20-8.954-20-20v-20c0-11.046 8.954-20 20-20z" fill="#daf552" data-original="#000000" style=""/></g></svg>
